PathFileType	4	(X/Y/Z)	/Users/niels/Desktop/University/Third Semester/Perception and Action/Exam/Gymnastics Motion Tracking/Code for Gym Tracking/Analyzed Data/Webcam_Backflip/id6_2_baseline_Sports2D/id6_2_baseline_Sports2D_px_person00.trc
DataRate	CameraRate	NumFrames	NumMarkers	Units	OrigDataRate	OrigDataStartFrame	OrigNumFrames
29.810126582278482	29.810126582278482	12	22	m	29.810126582278482	138	158
Frame#	Time	Hip			RHip			RKnee			RAnkle			RBigToe			RSmallToe			RHeel			LHip			LKnee			LAnkle			LBigToe			LSmallToe			LHeel			Neck			Head			Nose			RShoulder			RElbow			RWrist			LShoulder			LElbow			LWrist		
		X1	Y1	Z1	X2	Y2	Z2	X3	Y3	Z3	X4	Y4	Z4	X5	Y5	Z5	X6	Y6	Z6	X7	Y7	Z7	X8	Y8	Z8	X9	Y9	Z9	X10	Y10	Z10	X11	Y11	Z11	X12	Y12	Z12	X13	Y13	Z13	X14	Y14	Z14	X15	Y15	Z15	X16	Y16	Z16	X17	Y17	Z17	X18	Y18	Z18	X19	Y19	Z19	X20	Y20	Z20	X21	Y21	Z21	X22	Y22	Z22
138	4.629299363057325	0.9726652171140305	-0.5660246953014118	0.0	0.9726107024167923	-0.5653264480215188	0.0	0.998541733144639	-0.661167041916313	0.0	0.9728717165000657	-0.7574481195398574	0.0	0.9992387572645584	-0.7793153019598824	0.0	0.9905676152598989	-0.7814872534468849	0.0	0.9641654619650681	-0.7728854062165861	0.0	0.9693586544232448	-0.5634011152505765	0.0	0.9952011303055425	-0.6595083168354976	0.0	0.9724359298495233	-0.7540374957186243	0.0	1.005957498889536	-0.7773325948635411	0.0	0.9984560714624754	-0.7741197659114493	0.0	0.9595959948171853	-0.7694872611609692	0.0	0.9853789955544473	-0.4347590706191474	0.0	1.0135158230619719	-0.3685259690017373	0.0	1.0189097642248832	-0.40410160367013814	0.0	0.9792464082473257	-0.4525262391784976	0.0	0.9775803564600168	-0.5187903668248895	0.0	1.0044103810393161	-0.5741110400994653	0.0	0.9773171644544203	-0.44982601172070197	0.0	0.9758977022137992	-0.5120242099892697	0.0	0.9983199751696726	-0.5669793951879528	0.0
139	4.662845010615711	0.9740448674396354	-0.5514825980952178	0.0	0.9747164371007383	-0.5514219961280286	0.0	0.9992403850802599	-0.647753037717124	0.0	0.9746685673030003	-0.7451457662429606	0.0	1.0032487239696726	-0.7692529931161631	0.0	0.994037521918858	-0.7715251305080315	0.0	0.9656858507641422	-0.7612893948075804	0.0	0.9701864867656312	-0.5494254784542673	0.0	0.9956240076600797	-0.6459535171804863	0.0	0.9738465241815737	-0.7418162215411696	0.0	1.0087073188439897	-0.7673456267001535	0.0	1.0013090710882704	-0.7638039864881131	0.0	0.9609678987973763	-0.7583906423006197	0.0	0.9864532709212491	-0.42047616140299293	0.0	1.016060099935998	-0.35474024390851205	0.0	1.0200550676118312	-0.39057480008961126	0.0	0.9804720640694216	-0.4377492183564198	0.0	0.9772036649668165	-0.5038025079442913	0.0	1.0038827818465734	-0.5586131423204167	0.0	0.9777299835974521	-0.4351825476788486	0.0	0.975718821441231	-0.4967542711761359	0.0	0.9981402571671892	-0.5525565748088356	0.0
140	4.6963906581740975	0.9756076892014076	-0.5396561729570427	0.0	0.9769112184364825	-0.5402335515388578	0.0	0.999503095555824	-0.6370875942248367	0.0	0.9767632789708739	-0.7356321180694171	0.0	1.0066260514809087	-0.7619566092730119	0.0	0.9971505709434393	-0.7642352211911082	0.0	0.9676728690676091	-0.7522543964587841	0.0	0.9711678797626168	-0.5381217427733394	0.0	0.99572041545896	-0.6351468246168657	0.0	0.9755874978645881	-0.732313682426123	0.0	1.0111700460333668	-0.7600534865864053	0.0	1.003923562584229	-0.7562240880940851	0.0	0.9627873440807687	-0.7499339958367947	0.0	0.987640954731852	-0.40877649329864174	0.0	1.0180795791785509	-0.34350003009435365	0.0	1.0211572386989942	-0.37958965910878195	0.0	0.9816663340068594	-0.4255807504291883	0.0	0.9769311619692023	-0.49170405766061237	0.0	1.003721866449722	-0.5459084188537415	0.0	0.978455160154433	-0.42324361062036997	0.0	0.976140499645557	-0.48440225406849646	0.0	0.998873503295647	-0.5410235301868929	0.0
141	4.729936305732484	0.977346100079747	-0.5312986085764052	0.0	0.979116911069421	-0.5324564086042275	0.0	0.999382717297359	-0.6297959997844069	0.0	0.9789549892136158	-0.7292787227175032	0.0	1.0092308504563836	-0.7576047352517914	0.0	0.999699751282125	-0.7598179183802755	0.0	0.9699177865763186	-0.7462201547451688	0.0	0.9723191391100631	-0.5302147706160275	0.0	0.9955397141002613	-0.6277267707892971	0.0	0.9774808671280268	-0.7259473100724777	0.0	1.0131516019561413	-0.7556664175599754	0.0	1.0060576700929749	-0.7516006539424248	0.0	0.9648588897205562	-0.7444887641251253	0.0	0.9890072889322155	-0.4004325760096158	0.0	1.0195128313601873	-0.3354398901981818	0.0	1.0222630168744375	-0.37168475728728173	0.0	0.9828575530964754	-0.41689397474119233	0.0	0.9769721029635781	-0.4833002648831204	0.0	1.0040939353042662	-0.5368591750103331	0.0	0.9795375042839253	-0.4148243990315456	0.0	0.9771528166054331	-0.4758493195819666	0.0	1.0004016220941714	-0.5329907429737417	0.0
142	4.763481953290871	0.9792209706850034	-0.5268062436009853	0.0	0.981283233506898	-0.5284390885094582	0.0	0.9989925746468027	-0.6261829189147025	0.0	0.9809831969717935	-0.7262600565696768	0.0	1.0110275341892736	-0.7561533462788597	0.0	1.001537494422327	-0.7582652211684924	0.0	0.9721496654594354	-0.7434234315467713	0.0	0.9736649489909306	-0.5261069172741458	0.0	0.995197599470985	-0.6240329670952837	0.0	0.9792637217764277	-0.7229627578792286	0.0	1.014477885208003	-0.7541476020328035	0.0	1.0075394141409102	-0.749955379156905	0.0	0.9669523002571255	-0.7421934438081124	0.0	0.990570343439714	-0.39584505841437106	0.0	1.0204100276435772	-0.33088898923657667	0.0	1.0233598094283372	-0.36712188728753076	0.0	0.9840662598554564	-0.4121554326524841	0.0	0.9774371782228524	-0.478954777995049	0.0	1.0050092934509232	-0.5319409986676618	0.0	0.9809416391994091	-0.41034949997655046	0.0	0.9787038370062235	-0.47152361230261464	0.0	1.0025418749194452	-0.5287418608731866	0.0
143	4.7970276008492565	0.9811502612263769	-0.5263267748959539	0.0	0.9833747812146406	-0.528241717389141	0.0	0.9984657490336487	-0.6263356646034506	0.0	0.982581029933206	-0.7266636631765911	0.0	1.0120525637053306	-0.7574532848251562	0.0	1.0026174166241042	-0.7594752414207819	0.0	0.9740892367353408	-0.7439865708862772	0.0	0.9752361881530476	-0.5259186832778117	0.0	0.9948514593532156	-0.6241479352383033	0.0	0.9806761064057627	-0.7234556854547753	0.0	1.01507983514617	-0.7553471697464064	0.0	1.0083227964110368	-0.7512101363019166	0.0	0.9688408328381994	-0.7430334199687751	0.0	0.9922711315846519	-0.39513961235419187	0.0	1.0208984838991133	-0.32996482239384073	0.0	1.024427665141398	-0.3660299484507747	0.0	0.9853216503906085	-0.41149586552109985	0.0	0.9783393532070773	-0.47870266230115377	0.0	1.0064148673398672	-0.5312976592809082	0.0	0.9825840198499353	-0.4099343396205256	0.0	0.9807253572076439	-0.471439476393851	0.0	1.0051264281760868	-0.5283439930143432	0.0
144	4.830573248407643	0.9830432375819131	-0.5297785908400864	0.0	0.9853540276615121	-0.5316914896509647	0.0	0.9979427344133206	-0.6301320376170652	0.0	0.9835485791340326	-0.7304255531077035	0.0	1.0122961583434023	-0.761280765809819	0.0	1.0029303663590317	-0.7632395817824101	0.0	0.9755119102451774	-0.7478527088011314	0.0	0.9770350314523903	-0.5295023037049703	0.0	0.9946521455859867	-0.6279152561624295	0.0	0.9815577213454394	-0.7272925749999204	0.0	1.014946327959805	-0.7590708755377176	0.0	1.0084095288312414	-0.7551842057200451	0.0	0.97032451569165	-0.7468199647914467	0.0	0.9939809010782764	-0.39824997819106317	0.0	1.0211025356574515	-0.3325956655937478	0.0	1.0254526749466302	-0.3684266054077541	0.0	0.9866455690086513	-0.4148296915493482	0.0	0.9796498804663236	-0.4823825004324835	0.0	1.0082598017117435	-0.5348201121534153	0.0	0.9843153471424214	-0.41345451804697775	0.0	0.9830987180594781	-0.47532533154340917	0.0	1.0080094812767004	-0.5316988623388391	0.0
145	4.86411889596603	0.9848327368048537	-0.5368147467545046	0.0	0.987151691895969	-0.5384320071023134	0.0	0.9975644890716621	-0.6371626528474754	0.0	0.9838083815493911	-0.7371942131568293	0.0	1.0116727875520244	-0.7672918450477852	0.0	1.0024494668397306	-0.7692009322936587	0.0	0.9762931086624552	-0.7546482657768783	0.0	0.9790204764346726	-0.5364526231058018	0.0	0.9947147110681672	-0.6349308145111606	0.0	0.9818829679938051	-0.7340378188277671	0.0	1.014065721485444	-0.7650301172087194	0.0	1.0077934754957352	-0.7615278572185942	0.0	0.9712431267926922	-0.7531380666207187	0.0	0.995548441882521	-0.4048946768236265	0.0	1.0210870486158	-0.33849446358901425	0.0	1.026410649791579	-0.37411559007958556	0.0	0.9880139256724145	-0.42186682709343226	0.0	0.981331518782525	-0.48964446896467445	0.0	1.0104708601738204	-0.5421971364496672	0.0	0.985933990965502	-0.4205470835912681	0.0	0.9856429818722968	-0.4827251069335658	0.0	1.0110115696978468	-0.5385441155243971	0.0
146	4.897664543524416	0.9864485607072981	-0.5468222220866852	0.0	0.9886412909355076	-0.5479238210221293	0.0	0.9974363522648675	-0.6467226988267477	0.0	0.9834177978374588	-0.746324938651378	0.0	1.0101411307496215	-0.774982102659675	0.0	1.001166440475384	-0.7768418303820785	0.0	0.9764199268865397	-0.7636662887834019	0.0	0.9811105233287113	-0.546134984721216	0.0	0.9951053079125827	-0.6445383089451593	0.0	0.9817362257745019	-0.7430037183276926	0.0	1.0124655127097157	-0.7727354381325989	0.0	1.0065059404906924	-0.7696703951977362	0.0	0.9715259820239044	-0.7613622875627599	0.0	0.9968484221995622	-0.41447716924430394	0.0	1.0208638967843306	-0.34713910695709954	0.0	1.0272632537484885	-0.3826016796123684	0.0	0.9893499865448376	-0.43202650967352024	0.0	0.9833171297574546	-0.4998773109807203	0.0	1.0128806149462684	-0.552884371655003	0.0	0.9872637112951468	-0.43054456926806045	0.0	0.9881555348261548	-0.492989951632543	0.0	1.0138616791298105	-0.5483994990928548	0.0
147	4.931210191082802	0.9877771258032498	-0.5589428980877368	0.0	0.9896643967775597	-0.559384563447296	0.0	0.9975872219997451	-0.6579095807062313	0.0	0.9825515376409981	-0.7570072445246033	0.0	1.0078080642009992	-0.7837179601008589	0.0	0.9991713092062481	-0.7855093783752741	0.0	0.9760012674266524	-0.7740030142196321	0.0	0.9831581101065118	-0.5576920310386891	0.0	0.9958060437416785	-0.6558631891190932	0.0	0.9812657190516245	-0.7534027297059063	0.0	1.0102759901986251	-0.781489467552727	0.0	1.0046663660061228	-0.7788640499097299	0.0	0.9712637448131265	-0.7707606380254914	0.0	0.9977962373606	-0.4260728878948861	0.0	1.0204428637013228	-0.3578024455973811	0.0	1.027965271616138	-0.3931560893006076	0.0	0.9905420519651514	-0.44439384057091275	0.0	0.985489503660927	-0.5121935209962781	0.0	1.015189360596906	-0.5660253570580808	0.0	0.9882153600763455	-0.4424613856948785	0.0	0.9904387009850414	-0.5052295736927631	0.0	1.01620142201674	-0.5605144318126024	0.0
148	4.964755838641189	0.988710082190821	-0.5721040067992595	0.0	0.9901046841643506	-0.5717928643878484	0.0	0.9979464213443019	-0.6697252826041864	0.0	0.9814547749252296	-0.7683609713680873	0.0	1.0049359022100703	-0.7928070340435008	0.0	0.9966997514153882	-0.7944950374395862	0.0	0.9752487256869108	-0.7847218271190286	0.0	0.9849687287611222	-0.5700844071193071	0.0	0.9966842422617028	-0.6679049639452647	0.0	0.9806283976177895	-0.7644560945623478	0.0	1.0077465926106863	-0.7905084105669247	0.0	1.0024941839918344	-0.7882971869620969	0.0	0.9706813736487463	-0.7805953189854496	0.0	0.9983509594528651	-0.4385494281219595	0.0	1.0198641594249596	-0.36962843058028594	0.0	1.0284672182380676	-0.40490606873758955	0.0	0.9914615557095866	-0.45777732115537734	0.0	0.9876823880450314	-0.5254899398659766	0.0	1.017020881950334	-0.5804383126657369	0.0	0.9888047761288883	-0.4551180863816072	0.0	0.9922759873144202	-0.5183230838858869	0.0	1.017662411837199	-0.5738836020104685	0.0
149	4.998301486199575	0.989234208048766	-0.5850709206616244	0.0	0.9899536452777635	-0.5839900965165589	0.0	0.9983531174072627	-0.6811428318053779	0.0	0.9803563097284242	-0.7794369850267427	0.0	1.001904185686239	-0.8015382825736754	0.0	0.9941022664868655	-0.8031035244884617	0.0	0.9743777328164427	-0.7949325016821535	0.0	0.9863975156106588	-0.5821931725706275	0.0	0.9975203617551206	-0.6796428408723042	0.0	0.979951090465563	-0.775357986298497	0.0	1.0052300491896304	-0.7990461384890251	0.0	1.000297633293855	-0.79717511722013	0.0	0.9699957654650652	-0.7901309376662337	0.0	0.9985389090005871	-0.45071159968015745	0.0	1.019184767811122	-0.3816636719185689	0.0	1.028730094059638	-0.4168333752650347	0.0	0.9919997276753367	-0.47084507894262717	0.0	0.9896897836629914	-0.5385407228218323	0.0	1.0180461126473872	-0.5947167062955063	0.0	0.9891567282581606	-0.4673249437430453	0.0	0.9934096290178915	-0.5310126035447762	0.0	1.0179838553384584	-0.5872945491780293	0.0
